<svg xmlns="http://www.w3.org/2000/svg" version="1.1" xmlns:xlink="http://www.w3.org/1999/xlink" xmlns:svgjs="http://svgjs.dev/svgjs" width="1000" height="1000" viewBox="0 0 1000 1000"><rect width="1000" height="1000" fill="#ffffff"></rect><g transform="matrix(0.7,0,0,0.7,150,106.25)"><svg viewBox="0 0 320 360" data-background-color="#cf5260" preserveAspectRatio="xMidYMid meet" height="1125" width="1000" xmlns="http://www.w3.org/2000/svg" xmlns:xlink="http://www.w3.org/1999/xlink"><g id="tight-bounds" transform="matrix(1,0,0,1,0,0)"><svg viewBox="0 0 320 360" height="360" width="320"><g><svg></svg></g><g><svg viewBox="0 0 320 360" height="360" width="320"><g><path xmlns="http://www.w3.org/2000/svg" d="M320 187.111c0-45.764-20.238-86.866-52.203-114.908-28.043-31.964-69.145-52.203-114.908-52.203-84.302 0-152.889 68.587-152.889 152.889 0 45.753 20.231 86.848 52.185 114.891 28.043 31.975 69.152 52.22 114.926 52.22 0.299 0 0.59-0.021 0.889-0.021 0.299 0 0.59 0.021 0.889 0.021 83.456 0 151.111-67.655 151.111-151.111 0-0.299-0.021-0.59-0.021-0.889 0-0.299 0.021-0.59 0.021-0.889zM59.833 263.097c-15.093-21.255-24.071-47.143-24.256-75.097 0.48-72.928 59.492-131.943 132.423-132.423 27.954 0.185 53.845 9.163 75.097 24.256 24.366 23.627 39.57 56.64 39.57 93.056 0 71.559-58.219 129.778-129.778 129.778-36.416 0-69.429-15.204-93.056-39.57zM3.556 172.889c0-82.343 66.99-149.333 149.333-149.333 35.051 0 67.292 12.167 92.8 32.462-22.98-13.824-49.863-21.796-78.578-21.796-84.302 0-152.889 68.587-152.889 152.889 0 28.708 7.968 55.584 21.785 78.56-20.288-25.5-32.452-57.739-32.451-92.782zM167.111 318.667c-35.84 0-68.363-14.418-92.107-37.743 21.952 15.89 48.864 25.298 77.885 25.298 73.522 0 133.333-59.812 133.333-133.333 0-29.02-9.408-55.932-25.298-77.885 23.324 23.744 37.742 56.267 37.743 92.107 0 72.54-59.015 131.556-131.556 131.556z" fill="#000000" fill-rule="nonzero" stroke="none" stroke-width="1" stroke-linecap="butt" stroke-linejoin="miter" stroke-miterlimit="10" stroke-dasharray="" stroke-dashoffset="0" font-family="none" font-weight="none" font-size="none" text-anchor="none" style="mix-blend-mode: normal" data-fill-palette-color="tertiary"></path></g><g transform="matrix(1,0,0,1,112.93521923620932,99)"><svg viewBox="0 0 94.12956152758134 162" height="162" width="94.12956152758134"><g><svg viewBox="0 0 94.12956152758134 162" height="162" width="94.12956152758134"><g><svg viewBox="0 0 94.12956152758134 162" height="162" width="94.12956152758134"><g><svg viewBox="0 0 94.12956152758134 162" height="162" width="94.12956152758134"><g id="textblocktransform"><svg viewBox="0 0 94.12956152758134 162" height="162" width="94.12956152758134" id="textblock"><g><svg viewBox="0 0 94.12956152758134 162" height="162" width="94.12956152758134"><g transform="matrix(1,0,0,1,0,0)"><svg width="94.12956152758134" viewBox="0.25999999046325684 -35 20.53999900817871 35.349998474121094" height="162" data-palette-color="#f0f0f0"><path d="M9.7 0.35L9.7 0.35Q8.75 0.35 8.18-0.48 7.6-1.3 7.3-2.55L7.3-2.55Q6.8-4.6 6.1-7.68 5.4-10.75 4.63-14.28 3.85-17.8 3.08-21.25 2.3-24.7 1.7-27.55 1.1-30.4 0.73-32.1 0.35-33.8 0.35-33.8L0.35-33.8Q0.2-34.45 0.3-34.73 0.4-35 1.25-35L1.25-35 4.55-35 8.7-15.65Q9.15-13.45 9.5-11.23 9.85-9 10.15-7.03 10.45-5.05 10.7-3.45L10.7-3.45Q10.9-5.05 11.18-7.03 11.45-9 11.8-11.23 12.15-13.45 12.5-15.65L12.5-15.65 16.25-33.8Q16.35-34.4 16.53-34.7 16.7-35 17.3-35L17.3-35 20.8-35 13.1 0.15Q12.3 0.25 11.58 0.3 10.85 0.35 9.7 0.35Z" opacity="1" transform="matrix(1,0,0,1,0,0)" fill="#000000" class="wordmark-text-0" data-fill-palette-color="primary" id="text-0"></path></svg></g></svg></g></svg></g></svg></g></svg></g></svg></g></svg></g></svg></g><defs></defs></svg><rect width="320" height="360" fill="none" stroke="none" visibility="hidden"></rect></g></svg></g></svg>